<?xml version="1.0" encoding="utf-8"?>
<!-- Generator: Adobe Illustrator 23.1.0, SVG Export Plug-In . SVG Version: 6.00 Build 0)  -->
<svg version="1.1" id="레이어_1" xmlns="http://www.w3.org/2000/svg" xmlns:xlink="http://www.w3.org/1999/xlink" x="0px"
	 y="0px" viewBox="0 0 708.7 708.7" style="enable-background:new 0 0 708.7 708.7;" xml:space="preserve">
<style type="text/css">
	.st0{fill:#064F24;stroke:#231815;stroke-miterlimit:10;}
</style>
<title>oasismuseumlogo</title>
<path class="st0" d="M226.9,372.8c10.2,0,19,3.9,26.4,11.6c7.4,7.7,11.2,17.3,11.1,28.9c0,11.9-3.7,21.7-11.2,29.6
	c-14.3,15.1-38.1,15.7-53.2,1.5c-0.4-0.4-0.8-0.8-1.2-1.2c-7.3-7.6-11-17.5-11-29.7c0-12.4,4.2-22.5,12.7-30.4
	C207.6,376.3,217.1,372.6,226.9,372.8z M225.8,377c-6.5-0.2-12.7,2.7-16.8,7.8c-5.3,6.5-7.9,15.9-7.9,28.4c0,12.8,2.7,22.6,8.2,29.5
	c4,5.1,10.1,8,16.6,7.9c7.1,0.1,13.8-3.1,18.2-8.6c4.8-5.7,7.2-14.8,7.2-27.1c0-13.4-2.6-23.4-7.9-29.9
	C239.1,379.6,233.3,377,225.8,377z"/>
<path class="st0" d="M323,426.6h-30.3l-5.3,12.3c-1.3,3-2,5.3-2,6.8c0,1.3,0.7,2.4,1.7,3.1c1.1,0.9,3.6,1.5,7.4,1.8v2.1h-24.6v-2.1
	c3.3-0.6,5.4-1.3,6.3-2.3c2-1.8,4.1-5.6,6.5-11.2l27.5-64.4h2l27.2,65c2.2,5.2,4.2,8.6,6,10.2c2.1,1.7,4.8,2.6,7.5,2.6v2.1h-30.9
	v-2.1c3.1-0.1,5.2-0.7,6.3-1.6c1-0.8,1.6-2,1.6-3.2c0-1.7-0.8-4.4-2.3-8L323,426.6z M321.4,422.3l-13.3-31.6l-13.6,31.6H321.4z"/>
<path class="st0" d="M408.4,372.8v27h-2.1c-0.4-4.3-1.7-8.5-3.7-12.4c-1.8-3.1-4.5-5.6-7.6-7.3c-3.1-1.8-6.7-2.7-10.3-2.7
	c-3.7-0.1-7.2,1.2-9.9,3.7c-2.4,2.1-3.9,5.1-3.9,8.3c0,2.4,0.9,4.7,2.5,6.5c2.4,2.9,8.1,6.7,17,11.5c7.3,3.9,12.3,6.9,15,9
	c2.6,2,4.7,4.5,6.2,7.4c1.4,2.8,2.2,5.8,2.2,8.9c0,5.9-2.5,11.4-6.9,15.3c-4.6,4.3-10.5,6.4-17.7,6.4c-2.1,0-4.3-0.2-6.4-0.5
	c-2.5-0.5-5-1.3-7.4-2.1c-3.8-1.2-6.1-1.8-7.1-1.8c-0.8,0-1.7,0.3-2.3,0.9c-0.7,1-1.2,2.3-1.2,3.6h-2.2v-26.8h2.1
	c1,5.6,2.3,9.8,4,12.6c1.9,3,4.6,5.4,7.8,6.9c3.5,1.9,7.5,2.8,11.5,2.7c4.8,0,8.6-1.3,11.4-3.8c2.7-2.2,4.2-5.5,4.2-9
	c0-2-0.6-4-1.6-5.8c-1.2-2.2-2.9-4-4.9-5.5c-4-2.7-8.1-5.1-12.3-7.4c-5-2.7-9.7-5.7-14.3-9c-2.6-2-4.8-4.5-6.4-7.4
	c-1.5-2.7-2.2-5.8-2.2-8.9c0-5.5,2.3-10.8,6.5-14.5c4.3-4.1,9.8-6.1,16.4-6.1c4.6,0.1,9.1,1.1,13.2,3.1c1.4,0.7,3,1.2,4.6,1.4
	c0.9,0,1.8-0.3,2.5-0.9c0.8-1,1.4-2.3,1.5-3.6L408.4,372.8z"/>
<path class="st0" d="M456.4,450.6v2.1h-33.5v-2.1h2.8c3.2,0,5.6-0.9,7-2.8c0.9-1.2,1.4-4.2,1.4-8.9v-50.5c0-4-0.3-6.6-0.8-7.8
	c-0.5-1.1-1.3-1.9-2.4-2.5c-1.6-0.9-3.5-1.4-5.3-1.4h-2.8v-2.1h33.5v2.1h-2.8c-3.2,0-5.5,1-7,2.8c-1,1.2-1.4,4.2-1.4,8.9v50.5
	c0,4,0.3,6.6,0.8,7.9c0.5,1.1,1.4,2,2.4,2.5c1.6,0.9,3.4,1.4,5.3,1.4H456.4z"/>
<path class="st0" d="M513.4,372.8v27h-2.1c-0.4-4.3-1.7-8.5-3.7-12.4c-1.8-3.1-4.5-5.6-7.6-7.3c-3.1-1.8-6.7-2.7-10.3-2.7
	c-3.7-0.1-7.2,1.2-9.9,3.7c-2.4,2.1-3.9,5.1-3.9,8.3c0,2.4,0.9,4.7,2.5,6.5c2.4,2.9,8,6.7,17,11.5c7.3,3.9,12.3,6.9,15,9
	c2.6,2,4.7,4.5,6.2,7.4c1.4,2.8,2.2,5.8,2.2,8.9c0,5.9-2.5,11.4-6.9,15.3c-4.6,4.3-10.5,6.4-17.7,6.4c-2.1,0-4.3-0.2-6.4-0.5
	c-2.5-0.6-5-1.3-7.4-2.1c-3.7-1.2-6.1-1.8-7.1-1.8c-0.8,0-1.7,0.3-2.3,0.9c-0.7,1.1-1.2,2.3-1.2,3.6h-2.1v-26.8h2.1
	c1,5.6,2.3,9.8,4,12.6c1.9,3,4.6,5.4,7.8,6.9c3.5,1.8,7.5,2.8,11.5,2.7c4.8,0,8.6-1.3,11.4-3.8c2.6-2.2,4.2-5.5,4.2-9
	c0-2-0.6-4-1.6-5.8c-1.2-2.2-2.9-4-4.9-5.5c-4-2.7-8.1-5.1-12.3-7.4c-5-2.7-9.7-5.7-14.3-9c-2.6-2-4.8-4.5-6.4-7.4
	c-1.5-2.7-2.2-5.8-2.2-8.9c0-5.5,2.3-10.8,6.5-14.5c4.3-4.1,9.8-6.1,16.4-6.1c4.6,0.1,9.1,1.1,13.2,3.1c1.4,0.7,3,1.2,4.5,1.4
	c0.9,0,1.8-0.3,2.5-0.9c0.8-1,1.4-2.3,1.5-3.6L513.4,372.8z"/>
<path class="st0" d="M143.4,558.4l-30.2-65.8v52.2c0,4.8,0.5,7.8,1.6,9c1.4,1.6,3.7,2.4,6.7,2.4h2.8v2.1H97.1v-2.1h2.8
	c3.3,0,5.7-1,7-3c0.8-1.2,1.3-4,1.3-8.4v-51.1c0-3.5-0.4-6-1.2-7.5c-0.7-1.2-1.7-2.2-3-2.8c-1.4-0.7-3.8-1.1-7-1.1v-2.1h22.2
	l28.4,61.2l27.9-61.2h22.1v2.1H195c-3.3,0-5.7,1-7.1,3c-0.9,1.2-1.3,4-1.3,8.4v51.1c0,4.8,0.5,7.8,1.6,9c1.4,1.6,3.7,2.4,6.8,2.4
	h2.7v2.1h-33.3v-2.1h2.8c3.4,0,5.7-1,7-3c0.8-1.2,1.3-4,1.3-8.4v-52.3l-30.2,65.8H143.4z"/>
<path class="st0" d="M256.5,482.4v-2.1h27.7v2.1h-2.9c-2.9-0.1-5.6,1.4-7.1,3.9c-0.8,1.2-1.2,4-1.2,8.3v31.7
	c0,7.9-0.8,13.9-2.3,18.3s-4.6,8-9.2,11.1c-4.6,3.1-10.8,4.7-18.6,4.7c-8.5,0-15-1.5-19.4-4.4c-4.3-2.9-7.6-7-9.4-11.9
	c-1.2-3.4-1.8-9.8-1.9-19.3v-30.6c0-4.8-0.7-8-2-9.5c-1.3-1.5-3.5-2.3-6.4-2.3h-2.9v-2.1h33.8v2.1h-3c-3.2,0-5.5,1-6.9,3.1
	c-1,1.4-1.4,4.3-1.4,8.6v34.1c0,3.5,0.3,7,0.8,10.4c0.3,3.2,1.3,6.4,3,9.2c1.6,2.3,3.8,4.2,6.3,5.4c3.2,1.5,6.6,2.3,10.1,2.1
	c4.8,0.1,9.5-1,13.8-3.3c3.7-1.8,6.6-4.8,8.3-8.6c1.5-3.5,2.2-9.4,2.2-17.7v-31.7c0-4.9-0.5-7.9-1.6-9.2c-1.5-1.7-3.7-2.5-6.7-2.5
	H256.5z"/>
<path class="st0" d="M339.6,478.4v27h-2.1c-0.7-5.2-1.9-9.3-3.7-12.4c-1.8-3.1-4.5-5.6-7.6-7.3c-3.1-1.8-6.7-2.7-10.3-2.7
	c-3.7-0.1-7.2,1.2-9.9,3.7c-2.4,2.1-3.9,5.1-3.9,8.3c0,2.4,0.9,4.7,2.5,6.5c2.4,2.9,8,6.7,17,11.5c7.3,3.9,12.3,6.9,15,9
	c2.6,2,4.7,4.5,6.2,7.4c1.4,2.8,2.2,5.8,2.2,8.9c0,5.9-2.5,11.4-6.9,15.3c-4.6,4.3-10.5,6.4-17.7,6.4c-2.1,0-4.3-0.2-6.4-0.5
	c-2.5-0.6-5-1.3-7.4-2.1c-3.7-1.2-6.1-1.8-7.1-1.8c-0.8,0-1.7,0.3-2.3,0.9c-0.7,1.1-1.2,2.3-1.2,3.6h-2.1v-26.8h2.1
	c1,5.6,2.3,9.8,4,12.6c1.9,3,4.6,5.4,7.8,7c3.5,1.9,7.5,2.8,11.5,2.8c4.8,0,8.6-1.3,11.4-3.8c2.7-2.2,4.2-5.5,4.2-9
	c0-2-0.6-4-1.6-5.8c-1.2-2.2-2.9-4-4.9-5.5c-4-2.7-8.1-5.1-12.3-7.4c-5-2.7-9.7-5.7-14.3-9c-2.6-2-4.8-4.5-6.4-7.4
	c-1.5-2.7-2.2-5.8-2.2-8.9c0-5.5,2.3-10.8,6.5-14.5c4.3-4,9.8-6.1,16.4-6.1c4.6,0.1,9.1,1.1,13.2,3.1c1.4,0.7,3,1.2,4.6,1.4
	c0.9,0,1.8-0.3,2.5-0.9c0.8-1,1.4-2.3,1.5-3.6L339.6,478.4z"/>
<path class="st0" d="M375.8,484.5v30.9H393c4.4,0,7.4-0.7,8.9-2c2-1.8,3.1-4.9,3.4-9.4h2.1v27.2h-2.1c-0.5-3.8-1.1-6.2-1.6-7.3
	c-0.7-1.4-1.9-2.5-3.4-3.2c-2.3-0.9-4.8-1.3-7.3-1.2h-17.2v25.8c0,3.5,0.2,5.6,0.5,6.3c0.3,0.8,0.9,1.4,1.6,1.8
	c1.4,0.5,2.9,0.8,4.4,0.7h13.3c3.2,0.1,6.5-0.2,9.6-0.9c2.2-0.7,4.2-2,5.8-3.6c3-3.2,5.4-6.8,7.3-10.8h2.3l-6.8,19.6h-60.3v-2.1h2.8
	c1.8,0,3.6-0.5,5.3-1.3c1.2-0.5,2.1-1.5,2.5-2.8c0.4-1.2,0.7-3.7,0.7-7.5v-50.8c0-5-0.5-8-1.5-9.2c-1.4-1.5-3.7-2.3-6.9-2.3h-2.8
	v-2.1h60.3l0.9,17.1h-2.3c-0.8-4.1-1.7-6.9-2.7-8.5c-1.1-1.6-2.6-2.8-4.4-3.5c-1.5-0.6-4.2-0.9-8.1-0.9L375.8,484.5z"/>
<path class="st0" d="M479.6,482.4v-2.1h27.7v2.1h-3c-2.9-0.1-5.6,1.4-7.1,3.9c-0.8,1.2-1.2,3.9-1.2,8.3v31.7
	c0,7.9-0.8,13.9-2.3,18.3c-1.6,4.3-4.6,8-9.2,11.1c-4.6,3.1-10.8,4.7-18.6,4.7c-8.5,0-15-1.5-19.4-4.4c-4.3-2.9-7.6-7-9.4-11.9
	c-1.2-3.4-1.8-9.8-1.9-19.3v-30.6c0-4.8-0.7-8-2-9.5c-1.3-1.5-3.5-2.3-6.4-2.3h-2.9v-2.1h33.8v2.1h-3c-3.2,0-5.5,1-6.9,3.1
	c-1,1.4-1.5,4.3-1.5,8.6v34.1c0,3.5,0.3,7,0.8,10.4c0.3,3.2,1.3,6.4,3,9.2c1.6,2.3,3.8,4.2,6.3,5.4c3.2,1.5,6.6,2.3,10.1,2.1
	c4.8,0.1,9.6-1,13.8-3.3c3.7-1.8,6.6-4.8,8.3-8.6c1.5-3.5,2.2-9.4,2.2-17.7v-31.7c0-4.9-0.5-7.9-1.6-9.2c-1.5-1.7-3.7-2.5-6.7-2.5
	H479.6z"/>
<path class="st0" d="M556.8,558.4l-30.2-65.8v52.2c0,4.8,0.5,7.8,1.6,9c1.4,1.6,3.7,2.4,6.7,2.4h2.8v2.1h-27.2v-2.1h2.8
	c3.3,0,5.7-1,7-3c0.8-1.2,1.3-4,1.3-8.4v-51.1c0-3.5-0.4-6-1.2-7.5c-0.7-1.2-1.7-2.2-3-2.8c-1.4-0.7-3.8-1.1-6.9-1.1v-2.1h22.1
	l28.4,61.2l27.9-61.2H611v2.1h-2.7c-3.3,0-5.7,1-7.1,3c-0.8,1.2-1.2,4-1.2,8.4v51.1c0,4.8,0.5,7.8,1.6,9c1.4,1.6,3.7,2.4,6.8,2.4
	h2.7v2.1h-33.2v-2.1h2.8c3.3,0,5.7-1,7-3c0.8-1.2,1.3-4,1.3-8.4v-52.3l-30.2,65.8H556.8z"/>
<path d="M355.5,154.6c22.7,0,42.3,8.6,58.9,25.8s24.9,38.7,24.9,64.5c0,26.5-8.4,48.6-25.1,66.1c-16.7,17.5-37,26.3-60.8,26.3
	c-24,0-44.2-8.5-60.6-25.6s-24.5-39.2-24.5-66.3c0-27.7,9.4-50.4,28.3-67.9C313.1,162.2,332.7,154.6,355.5,154.6z M353.1,164
	c-15.6,0-28.2,5.8-37.6,17.4c-11.8,14.4-17.6,35.5-17.6,63.4c0,28.5,6.1,50.5,18.3,65.8c9.3,11.7,21.7,17.5,37.1,17.5
	c16.4,0,29.9-6.4,40.6-19.2c10.7-12.8,16-33,16-60.5c0-29.9-5.9-52.2-17.6-66.9C382.8,169.8,369.8,164,353.1,164L353.1,164z"/>
</svg>
